<svg width="14" height="9" viewBox="0 0 14 9" fill="none" xmlns="http://www.w3.org/2000/svg">
<path fill-rule="evenodd" clip-rule="evenodd" d="M14.0009 4.50064C14.0009 4.2245 13.777 4.00064 13.5009 4.00064H1.70789L4.85489 0.854643C4.98137 0.728171 5.03076 0.543834 4.98447 0.37107C4.93817 0.198306 4.80323 0.063362 4.63047 0.01707C4.4577 -0.029222 4.27337 0.020171 4.14689 0.146643L0.146894 4.14664C0.0528521 4.24045 0 4.36782 0 4.50064C0 4.63347 0.0528521 4.76084 0.146894 4.85464L4.14689 8.85464C4.27337 8.98112 4.4577 9.03051 4.63047 8.98422C4.80323 8.93792 4.93817 8.80298 4.98447 8.63022C5.03076 8.45745 4.98137 8.27312 4.85489 8.14664L1.70789 5.00064H13.5009C13.777 5.00064 14.0009 4.77679 14.0009 4.50064Z" fill="white"/>
</svg>
