<svg width="14" height="9" viewBox="0 0 14 9" fill="none" xmlns="http://www.w3.org/2000/svg">
<path fill-rule="evenodd" clip-rule="evenodd" d="M0 4.50063C0 4.22449 0.223858 4.00063 0.5 4.00063H12.293L9.146 0.854632C8.95049 0.659123 8.95049 0.34214 9.146 0.146632C9.34151 -0.0488772 9.65849 -0.0488772 9.854 0.146632L13.854 4.14663C13.948 4.24044 14.0009 4.3678 14.0009 4.50063C14.0009 4.63346 13.948 4.76083 13.854 4.85463L9.854 8.85463C9.65849 9.05014 9.34151 9.05014 9.146 8.85463C8.95049 8.65912 8.95049 8.34214 9.146 8.14663L12.293 5.00063H0.5C0.223858 5.00063 0 4.77677 0 4.50063Z" fill="white"/>
</svg>
