<svg width="85" height="85" viewBox="0 0 85 85" fill="none" xmlns="http://www.w3.org/2000/svg">
<circle cx="42.5" cy="42.5" r="42.5" fill="#EA5C15"/>
<path fill-rule="evenodd" clip-rule="evenodd" d="M31.6512 15.7946C31.6512 15.1306 31.3874 14.4938 30.9179 14.0243C30.4484 13.5548 29.8116 13.291 29.1476 13.291C28.4836 13.291 27.8468 13.5548 27.3773 14.0243C26.9078 14.4938 26.644 15.1306 26.644 15.7946V19.9673H25.8095C24.2601 19.9673 22.7743 20.5827 21.6787 21.6783C20.5832 22.7738 19.9677 24.2597 19.9677 25.809V26.6435H15.7951C15.1311 26.6435 14.4943 26.9073 14.0248 27.3768C13.5553 27.8463 13.2915 28.4831 13.2915 29.1471C13.2915 29.8111 13.5553 30.4479 14.0248 30.9174C14.4943 31.3869 15.1311 31.6507 15.7951 31.6507H19.9677V39.996H15.7951C15.1311 39.996 14.4943 40.2598 14.0248 40.7293C13.5553 41.1988 13.2915 41.8356 13.2915 42.4996C13.2915 43.1636 13.5553 43.8004 14.0248 44.2699C14.4943 44.7394 15.1311 45.0032 15.7951 45.0032H19.9677V53.3485H15.7951C15.1311 53.3485 14.4943 53.6123 14.0248 54.0818C13.5553 54.5513 13.2915 55.1881 13.2915 55.8521C13.2915 56.5161 13.5553 57.1529 14.0248 57.6224C14.4943 58.0919 15.1311 58.3557 15.7951 58.3557H19.9677V59.1902C19.9677 62.4148 22.5848 65.0319 25.8095 65.0319H26.644V69.2046C26.644 69.8686 26.9078 70.5054 27.3773 70.9749C27.8468 71.4444 28.4836 71.7082 29.1476 71.7082C29.8116 71.7082 30.4484 71.4444 30.9179 70.9749C31.3874 70.5054 31.6512 69.8686 31.6512 69.2046V65.0319H39.9965V69.2046C39.9965 69.8686 40.2603 70.5054 40.7298 70.9749C41.1993 71.4444 41.8361 71.7082 42.5001 71.7082C43.1641 71.7082 43.8009 71.4444 44.2704 70.9749C44.7399 70.5054 45.0037 69.8686 45.0037 69.2046V65.0319H53.349V69.2046C53.349 69.8686 53.6127 70.5054 54.0823 70.9749C54.5518 71.4444 55.1886 71.7082 55.8526 71.7082C56.5166 71.7082 57.1534 71.4444 57.6229 70.9749C58.0924 70.5054 58.3562 69.8686 58.3562 69.2046V65.0319H59.1907C60.74 65.0319 62.2259 64.4164 63.3214 63.3209C64.4169 62.2254 65.0324 60.7395 65.0324 59.1902V58.3557H69.2051C69.869 58.3557 70.5058 58.0919 70.9754 57.6224C71.4449 57.1529 71.7086 56.5161 71.7086 55.8521C71.7086 55.1881 71.4449 54.5513 70.9754 54.0818C70.5058 53.6123 69.869 53.3485 69.2051 53.3485H65.0324V45.0032H69.2051C69.869 45.0032 70.5058 44.7394 70.9754 44.2699C71.4449 43.8004 71.7086 43.1636 71.7086 42.4996C71.7086 41.8356 71.4449 41.1988 70.9754 40.7293C70.5058 40.2598 69.869 39.996 69.2051 39.996H65.0324V31.6507H69.2051C69.869 31.6507 70.5058 31.3869 70.9754 30.9174C71.4449 30.4479 71.7086 29.8111 71.7086 29.1471C71.7086 28.4831 71.4449 27.8463 70.9754 27.3768C70.5058 26.9073 69.869 26.6435 69.2051 26.6435H65.0324V25.809C65.0324 24.2597 64.4169 22.7738 63.3214 21.6783C62.2259 20.5827 60.74 19.9673 59.1907 19.9673H58.3562V15.7946C58.3562 15.1306 58.0924 14.4938 57.6229 14.0243C57.1534 13.5548 56.5166 13.291 55.8526 13.291C55.1886 13.291 54.5518 13.5548 54.0823 14.0243C53.6127 14.4938 53.349 15.1306 53.349 15.7946V19.9673H45.0037V15.7946C45.0037 15.1306 44.7399 14.4938 44.2704 14.0243C43.8009 13.5548 43.1641 13.291 42.5001 13.291C41.8361 13.291 41.1993 13.5548 40.7298 14.0243C40.2603 14.4938 39.9965 15.1306 39.9965 15.7946V19.9673H31.6512V15.7946ZM24.9749 25.809C24.9749 25.5876 25.0629 25.3754 25.2194 25.2189C25.3759 25.0624 25.5881 24.9744 25.8095 24.9744H59.1907C59.412 24.9744 59.6243 25.0624 59.7808 25.2189C59.9373 25.3754 60.0252 25.5876 60.0252 25.809V59.1902C60.0252 59.4115 59.9373 59.6238 59.7808 59.7803C59.6243 59.9368 59.412 60.0247 59.1907 60.0247H25.8095C25.5881 60.0247 25.3759 59.9368 25.2194 59.7803C25.0629 59.6238 24.9749 59.4115 24.9749 59.1902V25.809ZM41.8291 51.6894L40.9111 49.1124H34.1448L33.2268 51.6894C33.0037 52.3149 32.5412 52.8262 31.9412 53.1107C31.3412 53.3952 30.6527 53.4297 30.0272 53.2066C29.4017 52.9835 28.8905 52.5211 28.6059 51.921C28.3214 51.321 28.2869 50.6325 28.51 50.007L34.1848 34.0842L34.1948 34.0541L34.2082 34.0208C34.7156 32.7122 35.9307 31.6473 37.5263 31.6473C39.1252 31.6473 40.337 32.7122 40.8477 34.0241L40.8577 34.0541L40.8711 34.0875L46.5459 50.0104C46.7581 50.6333 46.7165 51.3147 46.4301 51.9071C46.1437 52.4996 45.6356 52.9555 45.0156 53.1762C44.3957 53.3969 43.7138 53.3646 43.1174 53.0864C42.5211 52.8081 42.0583 52.3063 41.8291 51.6894ZM37.5263 39.6221L39.1252 44.1052H35.9273L37.5263 39.6221ZM50.0108 34.1476C50.0108 33.4836 50.2746 32.8468 50.7441 32.3773C51.2136 31.9078 51.8504 31.644 52.5144 31.644C53.1784 31.644 53.8152 31.9078 54.2847 32.3773C54.7543 32.8468 55.018 33.4836 55.018 34.1476V50.8482C55.018 51.5122 54.7543 52.149 54.2847 52.6185C53.8152 53.0881 53.1784 53.3518 52.5144 53.3518C51.8504 53.3518 51.2136 53.0881 50.7441 52.6185C50.2746 52.149 50.0108 51.5122 50.0108 50.8482V34.1476Z" fill="black"/>
</svg>
