<svg width="85" height="85" viewBox="0 0 85 85" fill="none" xmlns="http://www.w3.org/2000/svg">
<circle cx="42.5" cy="42.5" r="42.5" fill="#EA5C15"/>
<g clip-path="url(#clip0_406_1027)">
<path d="M33.7049 49.7279C34.6813 49.7279 35.4724 50.514 35.4724 51.4804C35.4714 51.7115 35.4249 51.9402 35.3356 52.1534C35.2462 52.3665 35.1158 52.56 34.9516 52.7227C34.7875 52.8855 34.5929 53.0143 34.379 53.1018C34.1651 53.1894 33.936 53.2339 33.7049 53.2329H26.5571C26.3258 53.2342 26.0965 53.1899 25.8823 53.1025C25.6681 53.0152 25.4732 52.8864 25.3088 52.7236C25.1444 52.5609 25.0137 52.3673 24.9242 52.1539C24.8347 51.9406 24.7881 51.7117 24.7871 51.4804C24.7871 50.514 25.5807 49.7279 26.5571 49.7279H33.7049ZM35.4324 43.2361C36.4088 43.2361 37.1999 44.0247 37.1999 44.9886C37.1989 45.2199 37.1523 45.4488 37.0628 45.6621C36.9733 45.8755 36.8426 46.069 36.6782 46.2318C36.5138 46.3946 36.3189 46.5233 36.1047 46.6107C35.8905 46.6981 35.6612 46.7424 35.4299 46.7411H26.5972C26.3661 46.7421 26.137 46.6975 25.9231 46.61C25.7092 46.5225 25.5146 46.3937 25.3505 46.2309C25.1863 46.0682 25.0559 45.8747 24.9665 45.6616C24.8771 45.4484 24.8306 45.2197 24.8297 44.9886C24.8297 44.0222 25.6208 43.2361 26.5972 43.2361H35.4324ZM45.1063 34.5736C45.1135 33.1739 45.6761 31.8343 46.6703 30.849C47.6645 29.8637 49.0091 29.3133 50.4089 29.3186C51.809 29.3133 53.154 29.8641 54.1483 30.8499C55.1426 31.8357 55.7048 33.176 55.7115 34.5761C55.7035 35.9766 55.1411 37.3168 54.1473 38.3036C53.1535 39.2903 51.8093 39.8432 50.4089 39.8412C49.0082 39.8425 47.664 39.2891 46.6702 38.302C45.6765 37.3148 45.1142 35.9743 45.1063 34.5736ZM60.7762 50.9947C61.0266 52.5444 59.8299 53.9489 58.2601 53.9439H42.5576C42.1888 53.9447 41.8243 53.8652 41.4893 53.711C41.1543 53.5569 40.8568 53.3317 40.6175 53.0512C40.3781 52.7707 40.2027 52.4414 40.1032 52.0863C40.0037 51.7312 39.9827 51.3588 40.0415 50.9947C40.8301 46.1327 43.524 42.2096 47.0415 40.6549C48.0716 41.227 49.2305 41.5273 50.4089 41.5273C51.5872 41.5273 52.7461 41.227 53.7762 40.6549C57.2937 42.2096 59.9901 46.1377 60.7762 50.9947ZM38.9649 40.2543C17.9848 40.2543 38.5969 40.2493 26.5947 40.2493C26.3634 40.2506 26.134 40.2063 25.9198 40.1189C25.7056 40.0315 25.5107 39.9028 25.3463 39.74C25.1819 39.5772 25.0513 39.3836 24.9617 39.1703C24.8722 38.957 24.8256 38.7281 24.8247 38.4968C24.8247 37.5304 25.6183 36.7443 26.5947 36.7443L38.9649 36.7468C39.9413 36.7468 40.735 37.5329 40.7325 38.5018C40.7325 38.7332 40.6867 38.9623 40.5977 39.1759C40.5086 39.3895 40.3782 39.5834 40.2139 39.7463C40.0495 39.9093 39.8546 40.038 39.6402 40.1252C39.4259 40.2124 39.1963 40.2563 38.9649 40.2543ZM26.5972 33.76C26.3656 33.7623 26.1358 33.7187 25.9212 33.6316C25.7065 33.5446 25.5112 33.4159 25.3466 33.2529C25.182 33.0899 25.0514 32.896 24.9622 32.6822C24.873 32.4684 24.8271 32.2391 24.8272 32.0075C24.8272 31.0411 25.6208 30.2549 26.5972 30.2549H38.9649C39.9388 30.2549 40.73 31.0386 40.73 32.0075C40.7273 32.4738 40.5397 32.9201 40.2083 33.2482C39.8769 33.5763 39.4288 33.7595 38.9624 33.7575L26.5972 33.76ZM46.1477 59.0888C46.5834 59.0888 47.0014 58.9168 47.3109 58.6102C47.6203 58.3035 47.7962 57.8871 47.8001 57.4515H65.4755V25.9062H19.5271V57.449H37.1999C37.1999 58.3528 37.9385 59.0863 38.8523 59.0863L46.1477 59.0888ZM72.5431 57.4515V59.8474C72.5431 61.3621 71.3013 62.5913 69.7741 62.5913H15.2259C13.6987 62.5913 12.4569 61.3646 12.4569 59.8474V57.4515H15.9945V25.8687C15.9945 23.9584 17.5542 22.4087 19.4845 22.4087H65.518C67.4458 22.4087 69.008 23.9584 69.008 25.8687V57.4515H72.5431Z" fill="black"/>
</g>
<defs>
<clipPath id="clip0_406_1027">
<rect width="60.0862" height="60.0862" fill="white" transform="translate(12.4569 12.457)"/>
</clipPath>
</defs>
</svg>
