<svg width="85" height="85" viewBox="0 0 85 85" fill="none" xmlns="http://www.w3.org/2000/svg">
<circle cx="42.5" cy="42.5" r="42.5" fill="#EA5C15"/>
<path d="M37.4929 40.0049V61.7961C37.4929 63.1781 37.4929 64.2997 39.9965 64.2997H45.0037C47.5073 64.2997 47.5073 63.1781 47.5073 61.7961V44.8669C43.6601 44.6248 40.0627 42.8783 37.4929 40.0049Z" fill="black"/>
<path fill-rule="evenodd" clip-rule="evenodd" d="M38.4892 34.7595C39.1382 36.1706 40.0797 37.4276 41.2513 38.4473C42.4228 39.467 43.7977 40.226 45.2848 40.6741C46.7719 41.1222 48.3373 41.2492 49.8771 41.0466C51.417 40.844 52.8963 40.3164 54.2168 39.4988L60.7587 46.0407L64.2988 42.5006L57.7569 35.9587C58.7539 34.3488 59.3164 32.5079 59.3897 30.6157C59.4629 28.7234 59.0444 26.8446 58.1748 25.1624C57.3053 23.4802 56.0145 22.0521 54.4284 21.0177C52.8423 19.9832 51.0151 19.3776 49.1251 19.2599C47.2351 19.1423 45.3469 19.5167 43.6448 20.3465C41.9426 21.1763 40.4847 22.4333 39.4133 23.9946C38.3419 25.556 37.6935 27.3685 37.5316 29.2552C37.3696 31.1419 37.6996 33.0384 38.4892 34.7595ZM48.446 36.134C48.0905 36.134 47.7425 36.104 47.402 36.0439C46.1404 35.8192 44.9854 35.192 44.1098 34.2563C43.1741 33.259 42.6108 31.9696 42.5148 30.6055C42.4188 29.2414 42.7959 27.8858 43.5826 26.7673C44.3693 25.6487 45.5176 24.8355 46.8339 24.4647C48.1501 24.0939 49.554 24.1881 50.8089 24.7315C52.0638 25.2749 53.0931 26.2343 53.7233 27.448C54.3534 28.6617 54.546 30.0554 54.2685 31.3945C53.991 32.7336 53.2604 33.9361 52.1998 34.7994C51.1393 35.6627 49.8135 36.134 48.446 36.134Z" fill="black"/>
<path d="M22.4713 21.7385C22.4713 20.3565 22.4713 19.2349 24.9749 19.2349H29.9821C32.4857 19.2349 32.4857 20.3565 32.4857 21.7385V61.7959C32.4857 63.1779 32.4857 64.2995 29.9821 64.2995H24.9749C22.4713 64.2995 22.4713 63.1779 22.4713 61.7959V21.7385ZM55.018 49.278C52.5144 49.278 52.5144 50.3996 52.5144 51.7816V61.7959C52.5144 63.1779 52.5144 64.2995 55.018 64.2995H60.0252C61.4072 64.2995 62.5288 64.2995 62.5288 61.7959V51.7816C62.5288 50.3996 62.5288 49.278 60.0252 49.278H55.018Z" fill="black"/>
</svg>
